<?xml version="1.0" encoding="utf-8"?>
<!-- Generator: Adobe Illustrator 23.0.0, SVG Export Plug-In . SVG Version: 6.00 Build 0)  -->
<svg version="1.1" id="Capa_1" xmlns="http://www.w3.org/2000/svg" xmlns:xlink="http://www.w3.org/1999/xlink" x="0px" y="0px"
	 viewBox="0 0 651.4 125" style="enable-background:new 0 0 651.4 125;" xml:space="preserve">
<style type="text/css">
	.st0{fill:#EB5569;}
	.st1{fill:#E53E3E;}
	.st2{fill:none;}
	.st3{fill:#F56565;}
	.st4{fill:#C53030;}
</style>
<g>
	<path class="st0" d="M86.1,24.9c0,1.7-0.6,3.3-1.7,4.7c-1.1,1.5-2.7,2.3-4.7,2.3c-1.3,0-2.6-0.3-3.8-1c-5.9-3.3-12.2-5-19-5
		c-7.1,0-13.4,1.6-18.8,4.7c-5.5,3.1-9.7,7.5-12.7,13.1s-4.5,12.1-4.5,19.4c0,7.9,1.6,14.6,4.7,20.3s7.4,10,12.9,13
		s11.7,4.5,18.5,4.5c7,0,13.4-1.7,19-5.1c1.1-0.6,2.4-0.9,3.7-0.9c2.1,0,3.7,0.8,5,2.4c1.1,1.4,1.7,2.9,1.7,4.5
		c0,1.1-0.3,2.2-0.9,3.2s-1.4,1.8-2.5,2.3c-3.7,2.1-7.8,3.7-12.4,5c-4.6,1.2-9.1,1.8-13.6,1.8c-9.2,0-17.7-2-25.4-6.1
		S17.7,98,13.1,90.2S6.2,73.3,6.2,62.9c0-9.6,2.2-18.2,6.6-25.9S23.3,23.2,31,18.8s16.4-6.6,25.9-6.6c9.2,0,17.8,2.3,25.9,6.8
		C85,20.4,86.1,22.3,86.1,24.9z"/>
	<path class="st0" d="M315.8,15.1c1.4,1.2,2.1,2.7,2.1,4.5c0,0.9-0.2,2-0.7,3.1l-36.3,85.7c-0.7,1.4-1.6,2.5-2.8,3.3
		c-1.2,0.8-2.5,1.1-3.8,1.1c-1.2-0.1-2.4-0.5-3.5-1.2s-2-1.7-2.6-3.1l-36.3-85.9c-0.4-0.8-0.6-1.8-0.6-3c0-2,0.7-3.6,2.1-4.8
		c1.4-1.2,3-1.8,4.7-1.8c2.8,0,4.9,1.5,6.3,4.5l31,73.2l29.3-73.4c0.7-1.3,1.5-2.4,2.6-3.1c1.1-0.8,2.3-1.1,3.6-1.1
		C312.8,13.2,314.4,13.8,315.8,15.1z"/>
	<path class="st0" d="M346.7,110.9c-1.4,1.3-3.1,2-5,2c-2.1,0-3.8-0.7-5-2c-1.3-1.3-1.9-3-1.9-5V20.2c0-1.9,0.7-3.5,2-4.8s3-2,5.1-2
		c1.9,0,3.5,0.7,4.9,2s2.1,2.9,2.1,4.8v85.7C348.9,107.9,348.2,109.5,346.7,110.9z"/>
	<path class="st0" d="M437.9,20c6.3,4.5,11.1,10.4,14.4,18c3.2,7.5,4.8,15.9,4.8,25.1c0,9.3-1.6,17.7-4.8,25.2
		c-3.2,7.5-8,13.5-14.4,17.9s-14,6.6-22.9,6.6h-35c-1.9,0-3.5-0.7-4.8-2s-2-2.9-2-4.8V20.2c0-1.9,0.7-3.5,2-4.8s2.9-2,4.8-2h35
		C423.9,13.3,431.5,15.6,437.9,20z M435.3,89.5c4.8-6.9,7.3-15.7,7.3-26.4c0-10.6-2.4-19.4-7.3-26.3s-12.1-10.4-21.7-10.4h-26.3
		v73.4h26.3C423.2,99.8,430.5,96.3,435.3,89.5z"/>
	<path class="st0" d="M474.3,76.8c-1.3-1.3-2-2.9-2-4.9c0-1.9,0.7-3.5,2-4.7s2.9-1.8,4.8-1.8h27.3c1.9,0,3.5,0.6,4.8,1.9
		s1.9,2.9,1.9,4.9c0,1.9-0.6,3.5-1.9,4.7c-1.3,1.2-2.9,1.8-4.8,1.8h-27.3C477.2,78.7,475.6,78.1,474.3,76.8z"/>
	<path class="st0" d="M557.1,15.4c1.2,1.3,1.8,2.9,1.8,4.8V106c0,1.9-0.7,3.5-2.1,4.8c-1.4,1.3-3.2,2-5.3,2s-3.8-0.7-5.1-2
		s-2-2.9-2-4.8V32.1l-12.5,7.5c-1,0.7-2.2,1-3.6,1c-1.9,0-3.5-0.7-4.8-2.2s-2-3.1-2-4.8c0-1.1,0.3-2.2,1-3.3c0.7-1,1.5-1.9,2.6-2.6
		l22.5-13.5c1.3-0.7,3-1,5-1C554.3,13.4,555.9,14.1,557.1,15.4z"/>
	<path class="st0" d="M628,16.9c5,3.5,8.8,8.1,11.4,13.8c2.6,5.7,3.9,11.8,3.9,18.3c0,7.3-1.4,15.3-4.3,23.9
		c-2.8,8.6-7.5,16.7-13.9,24.1c-6.4,7.4-14.7,12.8-24.9,16c-0.9,0.3-1.7,0.4-2.6,0.4c-1.9,0-3.5-0.5-4.9-1.6s-2.1-2.7-2.1-4.9
		c0-1.6,0.5-3,1.6-4.3c1-1.2,2.5-2.1,4.3-2.6c6.7-2.4,13-6.3,18.7-11.9s9.8-12,12.2-19.2c-5.5,5.3-11.9,8-19.2,8
		c-5.2,0-10.2-1.5-14.9-4.5s-8.4-7-11.2-12.1s-4.2-10.5-4.2-16.3s1.4-11.2,4.3-16.1c2.9-5,6.8-8.9,11.7-11.9
		c4.9-2.9,10.4-4.4,16.3-4.4C617.1,11.6,623,13.4,628,16.9z M624.2,58.4c3.6-3.9,5.5-8.7,5.5-14.5c0-5.5-1.8-10.2-5.4-14
		c-3.6-3.8-8.2-5.8-13.9-5.8c-5.3,0-9.8,1.9-13.4,5.7c-3.6,3.8-5.4,8.5-5.4,14.2s1.7,10.5,5.2,14.4s7.9,5.8,13.3,5.8
		C615.8,64.2,620.5,62.3,624.2,58.4z"/>
</g>
<g>
	<g id="XMLID_2_">
		<g>
			<path class="st1" d="M216.4,58.5c0.4,4.9-3,9.3-7.7,9.7c-3.6,0.4-6.8-1.7-8.2-4.8l-4.2,0.4l-3.2,1.5c-0.7,0.4-1.3,1.1-1.3,1.9
				c-0.3,2.1-0.8,4.2-1.6,6.2c-0.3,0.6-0.2,1.4,0.2,2.1l1.2,2.1l3.1,2.1c1.7-0.6,3.6-0.4,5.2,0.6c2.7,1.8,3.3,5.5,1.3,8.1
				c-1.7,2.2-4.9,2.9-7.4,1.4c-1.5-0.9-2.5-2.4-2.8-4.1l-3.5-2.3l-2.2-0.3c-0.7-0.1-1.5,0.2-2.1,0.7c-1.9,1.8-3.9,3.3-6.3,4.5
				c-0.8,0.4-1.3,1.2-1.3,2.1l-0.3,4.5l1.3,5.5c2.3,0.6,4.3,2.5,4.9,5.1c1,3.8-1.4,7.8-5.3,8.6c-3.5,0.8-7.1-1.3-8.2-4.6
				c-0.9-2.7-0.1-5.5,1.8-7.2l-1.4-5.5l-2.1-3.5c-0.5-0.9-1.6-1.4-2.7-1.4l0,0c-1.9,0-3.8-0.2-5.5-0.5c-1.1-0.2-2.1,0.1-2.9,0.9
				l-2.9,2.9l-3.2,6.6c0.7,1.5,0.8,3.3,0,5c-1.4,2.9-5,4.1-7.9,2.5c-2.5-1.4-3.6-4.5-2.5-7.1c0.7-1.8,2.2-2.9,3.9-3.4l3.2-6.6
				l0.6-4.5c0.1-0.8-0.2-1.6-0.8-2.1c-2.5-2.1-4.7-4.6-6.4-7.3c-0.4-0.7-1.2-1.2-2-1.2h-4.5l-4.8,1.5c-0.4,3-2.4,5.7-5.5,6.7
				c-4.1,1.3-8.6-1-9.9-5.1c-1.3-4.1,0.9-8.7,5-10c2.9-1,5.9-0.2,8,1.8l5.2-1.6l3.8-2.7c0.5-0.4,0.9-1.1,0.8-1.8
				c-0.1-0.7-0.1-1.5-0.1-2.3c0-4.2,0.9-8.2,2.6-11.8c0.3-0.5,0.3-1.2,0-1.6l-1.1-2.4l-3-2.3c-1.7,0.5-3.6,0.3-5.2-0.9
				c-2.6-2-3-5.7-0.9-8.2c1.9-2.1,5.1-2.6,7.4-1c1.5,1,2.3,2.6,2.5,4.2l3.4,2.5l3.4,0.6c2.5-2.3,5.4-4.1,8.5-5.5l0.8-4.8l-1-5
				c-2.9-0.8-5.4-3-6-6.1c-0.9-4.3,2.1-8.5,6.6-9.3c4.6-0.9,8.9,1.9,9.9,6.2c0.7,3.2-0.8,6.3-3.5,8.1l1,4.7l2.3,3.8
				c0.2,0.3,0.4,0.4,0.7,0.4l0,0c5.4,0,10.3,1.5,14.6,4c0.3,0.2,0.5,0.2,0.8,0l3.7-1.7l4.3-4.6c-0.3-1.6,0.2-3.4,1.4-4.7
				c2.2-2.4,6-2.4,8.3-0.1c2,2.1,2.1,5.5,0.2,7.6c-1.3,1.4-2.9,2.1-4.7,2L188,42l-1.3,3.8c-0.1,0.3-0.1,0.5,0.1,0.8
				c1.7,2.3,3,4.8,3.9,7.6c0.3,0.7,0.9,1.3,1.6,1.5l3.5,1l4.5-0.4c1.1-3.2,3.8-5.5,7.2-5.9C211.9,49.9,216,53.6,216.4,58.5
				L216.4,58.5z"/>
		</g>
	</g>
	<g id="XMLID_1_">
		<g>
			<circle class="st2" cx="161.9" cy="63.2" r="20.9"/>
		</g>
	</g>
	<path class="st3" d="M147.3,63.2c0-10.5,7.7-19.1,17.8-20.7c-1.1-0.2-2.1-0.3-3.2-0.3c-11.5,0-20.9,9.4-20.9,20.9
		S150.4,84,161.9,84c1.1,0,2.1-0.1,3.2-0.3C155,82.4,147.3,73.7,147.3,63.2L147.3,63.2z"/>
	<g>
		<circle class="st4" cx="126.6" cy="19.2" r="6"/>
		<circle class="st4" cx="125" cy="97.7" r="3.9"/>
		<circle class="st4" cx="197.3" cy="104.3" r="5.8"/>
		<circle class="st4" cx="155.5" cy="57.4" r="5.5"/>
		<circle class="st4" cx="159.8" cy="74.2" r="3.7"/>
		<circle class="st4" cx="171.4" cy="63.2" r="3.1"/>
	</g>
</g>
</svg>
